<?xml version="1.0" encoding="UTF-8"?>
<svg xmlns="http://www.w3.org/2000/svg" version="1.1" viewBox="0 0 841.89 595.28">
  <!-- Generator: Adobe Illustrator 29.3.1, SVG Export Plug-In . SVG Version: 2.1.0 Build 151)  -->
  <defs>
    <style>
      .st0 {
        fill: none;
        stroke: #9e1a16;
        stroke-miterlimit: 10;
        stroke-width: 5px;
      }
    </style>
  </defs>
  <g id="RADIO">
    <rect class="st0" x="102.82" y="205.93" width="606.64" height="271.91" rx="118.72" ry="118.72"/>
  </g>
  <g id="CASSA">
    <g>
      <circle class="st0" cx="211.84" cy="336.91" r="82.72"/>
      <line class="st0" x1="162.82" y1="270.27" x2="162.82" y2="403.54"/>
      <line class="st0" x1="250.06" y1="263.53" x2="250.06" y2="410.29"/>
      <line class="st0" x1="208.84" y1="254.18" x2="208.84" y2="419.63"/>
      <line class="st0" x1="145.2" y1="385.5" x2="278.47" y2="385.5"/>
      <line class="st0" x1="138.46" y1="298.27" x2="285.22" y2="298.27"/>
      <line class="st0" x1="129.12" y1="339.48" x2="294.56" y2="339.48"/>
    </g>
    <g>
      <circle class="st0" cx="601.54" cy="336.91" r="82.72"/>
      <line class="st0" x1="552.52" y1="270.27" x2="552.52" y2="403.54"/>
      <line class="st0" x1="639.76" y1="263.53" x2="639.76" y2="410.29"/>
      <line class="st0" x1="598.54" y1="254.18" x2="598.54" y2="419.63"/>
      <line class="st0" x1="534.9" y1="385.5" x2="668.17" y2="385.5"/>
      <line class="st0" x1="528.16" y1="298.27" x2="674.92" y2="298.27"/>
      <line class="st0" x1="518.81" y1="339.48" x2="684.26" y2="339.48"/>
    </g>
  </g>
  <g id="MANICO">
    <path class="st0" d="M372.86,128.57h73.53c21.37,0,38.72,17.35,38.72,38.72v38.64h-150.97v-38.64c0-21.37,17.35-38.72,38.72-38.72Z"/>
  </g>
  <g id="SCHERMO_VOLUME">
    <rect class="st0" x="319.84" y="297.64" width="172.09" height="105.9"/>
    <line class="st0" x1="333.61" y1="391.09" x2="333.61" y2="329.93"/>
    <line class="st0" x1="341.57" y1="391.09" x2="341.57" y2="371.09"/>
    <line class="st0" x1="349.53" y1="391.09" x2="349.53" y2="359.44"/>
    <line class="st0" x1="357.49" y1="391.09" x2="357.49" y2="386.43"/>
    <line class="st0" x1="365.45" y1="391.09" x2="365.45" y2="350.59"/>
    <line class="st0" x1="373.41" y1="391.09" x2="373.41" y2="365.07"/>
    <line class="st0" x1="381.37" y1="391.09" x2="381.37" y2="379.25"/>
    <line class="st0" x1="389.33" y1="391.09" x2="389.33" y2="336.91"/>
    <line class="st0" x1="397.29" y1="391.09" x2="397.29" y2="375.27"/>
    <line class="st0" x1="405.26" y1="391.09" x2="405.26" y2="365.07"/>
    <line class="st0" x1="413.22" y1="391.09" x2="413.22" y2="379.25"/>
    <line class="st0" x1="421.18" y1="391.09" x2="421.18" y2="336.91"/>
    <line class="st0" x1="429.14" y1="391.09" x2="429.14" y2="375.27"/>
    <line class="st0" x1="437.1" y1="391.09" x2="437.1" y2="365.07"/>
    <line class="st0" x1="445.06" y1="391.09" x2="445.06" y2="365.07"/>
    <line class="st0" x1="453.02" y1="391.09" x2="453.02" y2="379.25"/>
    <line class="st0" x1="460.98" y1="391.09" x2="460.98" y2="336.91"/>
    <line class="st0" x1="468.94" y1="391.09" x2="468.94" y2="375.27"/>
    <line class="st0" x1="476.9" y1="391.09" x2="476.9" y2="375.27"/>
  </g>
  <g id="ONDE_AUDIO">
    <path class="st0" d="M79.91,254.18s-1.98-70.47,89.97-70.47"/>
    <path class="st0" d="M51.89,263.53s-2.89-102.91,131.38-102.91"/>
    <path class="st0" d="M25.51,263.53s-3.4-121.12,154.62-121.12"/>
  </g>
</svg>