<?xml version="1.0" encoding="UTF-8"?>
<svg xmlns="http://www.w3.org/2000/svg" version="1.1" viewBox="0 0 841.89 595.28">
  <!-- Generator: Adobe Illustrator 29.3.1, SVG Export Plug-In . SVG Version: 2.1.0 Build 151)  -->
  <defs>
    <style>
      .st0 {
        fill: none;
        stroke: #9e1a16;
        stroke-miterlimit: 10;
        stroke-width: 5px;
      }
    </style>
  </defs>
  <g id="RADIO">
    <rect class="st0" x="102.82" y="205.93" width="606.64" height="271.91" rx="118.72" ry="118.72"/>
  </g>
  <g id="CASSA">
    <g>
      <circle class="st0" cx="211.84" cy="336.91" r="82.72"/>
      <line class="st0" x1="162.82" y1="270.27" x2="162.82" y2="403.54"/>
      <line class="st0" x1="250.06" y1="263.53" x2="250.06" y2="410.29"/>
      <line class="st0" x1="208.84" y1="254.18" x2="208.84" y2="419.63"/>
      <line class="st0" x1="145.2" y1="385.5" x2="278.47" y2="385.5"/>
      <line class="st0" x1="138.46" y1="298.27" x2="285.22" y2="298.27"/>
      <line class="st0" x1="129.12" y1="339.48" x2="294.56" y2="339.48"/>
    </g>
    <g>
      <circle class="st0" cx="601.54" cy="336.91" r="82.72"/>
      <line class="st0" x1="552.52" y1="270.27" x2="552.52" y2="403.54"/>
      <line class="st0" x1="639.76" y1="263.53" x2="639.76" y2="410.29"/>
      <line class="st0" x1="598.54" y1="254.18" x2="598.54" y2="419.63"/>
      <line class="st0" x1="534.9" y1="385.5" x2="668.17" y2="385.5"/>
      <line class="st0" x1="528.16" y1="298.27" x2="674.92" y2="298.27"/>
      <line class="st0" x1="518.81" y1="339.48" x2="684.26" y2="339.48"/>
    </g>
  </g>
  <g id="MANICO">
    <path class="st0" d="M372.86,128.57h73.53c21.37,0,38.72,17.35,38.72,38.72v38.64h-150.97v-38.64c0-21.37,17.35-38.72,38.72-38.72Z"/>
  </g>
  <g id="SCHERMO_AUDIO">
    <rect class="st0" x="319.84" y="297.64" width="172.09" height="105.9"/>
    <line class="st0" x1="333.61" y1="391.09" x2="333.61" y2="386.43"/>
    <line class="st0" x1="340.79" y1="391.09" x2="340.79" y2="386.43"/>
    <line class="st0" x1="347.98" y1="391.09" x2="347.98" y2="386.43"/>
    <line class="st0" x1="355.16" y1="391.09" x2="355.16" y2="386.43"/>
    <line class="st0" x1="362.34" y1="391.09" x2="362.34" y2="386.43"/>
    <line class="st0" x1="369.53" y1="391.09" x2="369.53" y2="386.43"/>
    <line class="st0" x1="376.71" y1="391.09" x2="376.71" y2="386.43"/>
    <line class="st0" x1="383.89" y1="391.09" x2="383.89" y2="386.43"/>
    <line class="st0" x1="391.08" y1="391.09" x2="391.08" y2="386.43"/>
    <line class="st0" x1="398.26" y1="391.09" x2="398.26" y2="386.43"/>
    <line class="st0" x1="405.45" y1="391.09" x2="405.45" y2="386.43"/>
    <line class="st0" x1="412.63" y1="391.09" x2="412.63" y2="386.43"/>
    <line class="st0" x1="419.81" y1="391.09" x2="419.81" y2="386.43"/>
    <line class="st0" x1="427" y1="391.09" x2="427" y2="386.43"/>
    <line class="st0" x1="434.18" y1="391.09" x2="434.18" y2="386.43"/>
    <line class="st0" x1="441.37" y1="391.09" x2="441.37" y2="386.43"/>
    <line class="st0" x1="448.55" y1="391.09" x2="448.55" y2="386.43"/>
    <line class="st0" x1="455.73" y1="391.09" x2="455.73" y2="386.43"/>
    <line class="st0" x1="462.92" y1="391.09" x2="462.92" y2="386.43"/>
    <line class="st0" x1="470.1" y1="391.09" x2="470.1" y2="386.43"/>
    <line class="st0" x1="477.29" y1="391.09" x2="477.29" y2="386.43"/>
  </g>
</svg>